<svg width="12" height="12" viewBox="0 0 12 12" fill="none" xmlns="http://www.w3.org/2000/svg">
<path fill-rule="evenodd" clip-rule="evenodd" d="M8.139 1C8.717 1 9.1855 1.4635 9.1855 2.035V8.2855C9.18951 8.38127 9.23053 8.47174 9.29992 8.53786C9.36931 8.60399 9.46165 8.6406 9.5575 8.64C9.65326 8.64047 9.74548 8.6038 9.81476 8.53769C9.88404 8.47158 9.92499 8.38118 9.929 8.2855V4.5495C9.92972 4.41424 9.95708 4.28044 10.0095 4.15575C10.0619 4.03106 10.1384 3.91792 10.2346 3.82279C10.3307 3.72765 10.4447 3.65239 10.5699 3.6013C10.6952 3.5502 10.8292 3.52428 10.9645 3.525C11.0998 3.52428 11.2339 3.55022 11.3592 3.60134C11.4845 3.65247 11.5984 3.72778 11.6946 3.82296C11.7908 3.91815 11.8672 4.03135 11.9196 4.1561C11.972 4.28085 11.9993 4.4147 12 4.55V7.8305C11.9995 7.91648 11.9648 7.99873 11.9037 8.05919C11.8426 8.11966 11.76 8.1534 11.674 8.153C11.6314 8.15326 11.5891 8.14513 11.5497 8.12907C11.5102 8.113 11.4743 8.08932 11.444 8.05937C11.4136 8.02942 11.3895 7.9938 11.373 7.95453C11.3564 7.91526 11.3478 7.87311 11.3475 7.8305V4.55C11.3472 4.49997 11.3371 4.45047 11.3177 4.40435C11.2983 4.35822 11.2701 4.31637 11.2345 4.28118C11.1989 4.24598 11.1568 4.21814 11.1105 4.19923C11.0641 4.18033 11.0145 4.17074 10.9645 4.171C10.9145 4.17074 10.8649 4.18033 10.8185 4.19923C10.7722 4.21814 10.7301 4.24598 10.6945 4.28118C10.6589 4.31637 10.6307 4.35822 10.6113 4.40435C10.5919 4.45047 10.5818 4.49997 10.5815 4.55V8.286C10.5808 8.41975 10.5537 8.55205 10.5019 8.67535C10.45 8.79864 10.3744 8.91052 10.2793 9.00458C10.1842 9.09865 10.0715 9.17306 9.94768 9.22358C9.82384 9.2741 9.69125 9.29972 9.5575 9.299C9.42375 9.29972 9.29116 9.2741 9.16732 9.22358C9.04347 9.17306 8.93078 9.09865 8.8357 9.00458C8.74061 8.91052 8.66498 8.79864 8.61313 8.67535C8.56128 8.55205 8.53422 8.41975 8.5335 8.286V2.036C8.52936 1.93444 8.48598 1.83845 8.41249 1.76823C8.33901 1.698 8.24114 1.65903 8.1395 1.6595C8.03785 1.65889 7.93994 1.69774 7.86636 1.76787C7.79278 1.838 7.74927 1.93394 7.745 2.0355L7.7445 9.9875C7.74291 10.2575 7.63415 10.5159 7.44213 10.7058C7.2501 10.8956 6.99054 11.0015 6.7205 11C6.58675 11.0007 6.45416 10.9751 6.33032 10.9246C6.20647 10.8741 6.09378 10.7996 5.9987 10.7056C5.90361 10.6115 5.82798 10.4996 5.77613 10.3763C5.72428 10.2531 5.69722 10.1208 5.6965 9.987V9.02C5.6965 8.842 5.8425 8.6975 6.0225 8.6975C6.2025 8.6975 6.3485 8.842 6.3485 9.02V9.987C6.3485 10.1185 6.4195 10.24 6.5345 10.306C6.6495 10.3715 6.7915 10.3715 6.9065 10.306C6.96293 10.274 7.00987 10.2276 7.04254 10.1716C7.07522 10.1156 7.09245 10.0519 7.0925 9.987V2.035C7.0925 1.4635 7.561 1 8.139 1ZM5.302 1C5.88 1 6.3485 1.4635 6.3485 2.035V7.7965C6.3483 7.83909 6.33971 7.88122 6.32322 7.92049C6.30672 7.95976 6.28264 7.99539 6.25237 8.02534C6.22209 8.0553 6.1862 8.07899 6.14676 8.09506C6.10731 8.11113 6.06509 8.11926 6.0225 8.119C5.97991 8.11926 5.93769 8.11113 5.89824 8.09506C5.8588 8.07899 5.82291 8.0553 5.79263 8.02534C5.76235 7.99539 5.73828 7.95976 5.72178 7.92049C5.70529 7.88122 5.6967 7.83909 5.6965 7.7965V2.035C5.69584 1.93099 5.65392 1.83149 5.57995 1.75837C5.50598 1.68524 5.40601 1.64447 5.302 1.645C5.19799 1.64447 5.09802 1.68524 5.02405 1.75837C4.95008 1.83149 4.90816 1.93099 4.9075 2.035V9.0415C4.90591 9.3145 4.79601 9.5757 4.60194 9.76771C4.40786 9.95972 4.1455 10.0668 3.8725 10.0655C3.59941 10.067 3.33692 9.95991 3.14274 9.76789C2.94856 9.57587 2.83859 9.31459 2.837 9.0415V4.55C2.83674 4.49997 2.82662 4.45047 2.80723 4.40435C2.78784 4.35822 2.75956 4.31637 2.72399 4.28118C2.68843 4.24598 2.64628 4.21814 2.59996 4.19923C2.55363 4.18033 2.50403 4.17074 2.454 4.171C2.40397 4.17074 2.35437 4.18033 2.30804 4.19923C2.26172 4.21814 2.21957 4.24598 2.18401 4.28118C2.14844 4.31637 2.12016 4.35822 2.10077 4.40435C2.08138 4.45047 2.07126 4.49997 2.071 4.55V6.45C2.07028 6.58526 2.04292 6.71906 1.9905 6.84375C1.93807 6.96844 1.86159 7.08158 1.76544 7.17671C1.66928 7.27185 1.55533 7.34711 1.43008 7.3982C1.30484 7.4493 1.17076 7.47522 1.0355 7.4745C0.900238 7.47522 0.766158 7.4493 0.640915 7.3982C0.515673 7.34711 0.40172 7.27185 0.305565 7.17671C0.209409 7.08158 0.132934 6.96844 0.0805049 6.84375C0.028076 6.71906 0.000720345 6.58526 0 6.45L0 5.761C0 5.5825 0.146 5.438 0.326 5.438C0.506 5.438 0.6525 5.583 0.6525 5.761V6.45C0.6525 6.659 0.824 6.8285 1.0355 6.8285C1.247 6.8285 1.4185 6.659 1.4185 6.45V4.5495C1.42009 4.2765 1.52999 4.0153 1.72406 3.82329C1.91814 3.63128 2.1805 3.52417 2.4535 3.5255C2.72659 3.52404 2.98908 3.63109 3.18326 3.82311C3.37744 4.01513 3.48741 4.27641 3.489 4.5495V9.0415C3.489 9.251 3.6605 9.4205 3.8725 9.4205C4.084 9.4205 4.2555 9.251 4.2555 9.0415V2.035C4.2555 1.4635 4.724 1 5.302 1Z" fill="black"/>
</svg>
