<svg width="12" height="12" viewBox="0 0 12 12" fill="none" xmlns="http://www.w3.org/2000/svg">
<g clip-path="url(#clip0_1542_2198)">
<path fill-rule="evenodd" clip-rule="evenodd" d="M6.30224 0.670083C6.49874 1.01508 6.69424 1.36108 6.88924 1.70758C6.89713 1.72144 6.90855 1.73295 6.92234 1.74095C6.93613 1.74894 6.9518 1.75313 6.96774 1.75308H9.74374C9.83074 1.75308 9.90474 1.80808 9.96674 1.91658L10.6937 3.20158C10.7887 3.37008 10.8137 3.44058 10.7057 3.62008C10.5757 3.83508 10.4492 4.05208 10.3257 4.27008L10.1422 4.59908C10.0892 4.69708 10.0307 4.73908 10.1222 4.85508L11.4482 7.17358C11.5342 7.32408 11.5037 7.42058 11.4267 7.55858C11.2082 7.95108 10.9857 8.34058 10.7592 8.72858C10.6797 8.86458 10.5832 8.91608 10.4192 8.91358C10.0307 8.90558 9.64324 8.90858 9.25574 8.92158C9.24744 8.92201 9.23937 8.92453 9.23229 8.9289C9.22521 8.93327 9.21935 8.93935 9.21524 8.94658C8.76816 9.73872 8.31732 10.5287 7.86274 11.3166C7.77824 11.4631 7.67274 11.4981 7.50024 11.4986C7.00174 11.5001 6.49924 11.5006 5.99174 11.4996C5.94449 11.4995 5.89812 11.4869 5.85729 11.4631C5.81647 11.4393 5.78265 11.4051 5.75924 11.3641L5.09174 10.2026C5.08786 10.195 5.0819 10.1886 5.07455 10.1843C5.0672 10.18 5.05877 10.1778 5.05024 10.1781H2.49124C2.34874 10.1931 2.21474 10.1776 2.08874 10.1321L1.28724 8.74708C1.26354 8.70608 1.25098 8.65958 1.2508 8.61222C1.25063 8.56485 1.26284 8.51826 1.28624 8.47708L1.88974 7.41708C1.89834 7.40209 1.90286 7.38511 1.90286 7.36783C1.90286 7.35055 1.89834 7.33357 1.88974 7.31858C1.57538 6.77432 1.26288 6.22898 0.952244 5.68258L0.557244 4.98508C0.477244 4.83008 0.470744 4.73708 0.604744 4.50258C0.837244 4.09608 1.06824 3.69008 1.29824 3.28458C1.36424 3.16758 1.45024 3.11758 1.59024 3.11708C2.02174 3.11527 2.45324 3.1151 2.88474 3.11658C2.89564 3.1165 2.90633 3.11354 2.91572 3.10801C2.92511 3.10248 2.93288 3.09457 2.93824 3.08508L4.34124 0.637583C4.36251 0.600349 4.3932 0.569376 4.43025 0.547783C4.46729 0.526189 4.50937 0.514738 4.55224 0.514583C4.81424 0.514083 5.07874 0.514583 5.34374 0.511583L5.85224 0.500083C6.02274 0.498583 6.21424 0.516083 6.30224 0.670083ZM4.58624 0.871583C4.58097 0.871579 4.5758 0.872964 4.57123 0.875597C4.56667 0.87823 4.56288 0.882019 4.56024 0.886583L3.12724 3.39408C3.12036 3.4059 3.11052 3.41571 3.09868 3.42255C3.08684 3.42939 3.07342 3.43302 3.05974 3.43308H1.62674C1.59874 3.43308 1.59174 3.44558 1.60624 3.47008L4.51124 8.54808C4.52374 8.56908 4.51774 8.57908 4.49424 8.57958L3.09674 8.58708C3.07631 8.5864 3.0561 8.59148 3.03842 8.60173C3.02074 8.61199 3.0063 8.62701 2.99674 8.64508L2.33674 9.80008C2.31474 9.83908 2.32624 9.85908 2.37074 9.85908L5.22874 9.86308C5.25174 9.86308 5.26874 9.87308 5.28074 9.89358L5.98224 11.1206C6.00524 11.1611 6.02824 11.1616 6.05174 11.1206L8.55474 6.74058L8.94624 6.04958C8.94863 6.04531 8.95211 6.04176 8.95633 6.03929C8.96055 6.03681 8.96535 6.03551 8.97024 6.03551C8.97513 6.03551 8.97994 6.03681 8.98416 6.03929C8.98837 6.04176 8.99186 6.04531 8.99424 6.04958L9.70624 7.31458C9.71159 7.32405 9.71937 7.33191 9.72878 7.33736C9.73818 7.34281 9.74887 7.34565 9.75974 7.34558L11.1412 7.33558C11.1448 7.33561 11.1483 7.33471 11.1513 7.33295C11.1544 7.33119 11.157 7.32865 11.1587 7.32558C11.1605 7.32253 11.1613 7.31908 11.1613 7.31558C11.1613 7.31208 11.1605 7.30864 11.1587 7.30558L9.70874 4.76258C9.70353 4.75408 9.70077 4.74431 9.70077 4.73433C9.70077 4.72436 9.70353 4.71458 9.70874 4.70608L9.85524 4.45258L10.4152 3.46408C10.4272 3.44358 10.4212 3.43308 10.3977 3.43308H4.60024C4.57074 3.43308 4.56374 3.42008 4.57874 3.39458L5.29574 2.14208C5.30112 2.13355 5.30397 2.12367 5.30397 2.11358C5.30397 2.1035 5.30112 2.09362 5.29574 2.08508L4.61274 0.887083C4.61013 0.882352 4.60629 0.878414 4.60163 0.875686C4.59696 0.872958 4.59165 0.87154 4.58624 0.871583ZM7.73124 4.88158C7.75424 4.88158 7.76024 4.89158 7.74824 4.91158L7.33224 5.64408L6.02574 7.93658C6.02329 7.94104 6.01966 7.94475 6.01526 7.94731C6.01085 7.94986 6.00584 7.95117 6.00074 7.95108C5.99567 7.95106 5.9907 7.94971 5.98631 7.94717C5.98192 7.94462 5.97828 7.94097 5.97574 7.93658L4.24924 4.92058C4.23924 4.90358 4.24424 4.89458 4.26324 4.89358L4.37124 4.88758L7.73224 4.88158H7.73124Z" fill="black"/>
</g>
<defs>
<clipPath id="clip0_1542_2198">
<rect width="12" height="12" fill="white"/>
</clipPath>
</defs>
</svg>
